<svg xmlns="http://www.w3.org/2000/svg" viewBox="0 0 375.527 426">
  <title>logo</title>
  <g id="Layer_2" data-name="Layer 2">
    <g id="Layer_1-2" data-name="Layer 1">
      <path d="M332.111,200.7q-6.736.141-13.478.141a12.323,12.323,0,0,1-6.357-1.624h-.03l-29.023,21.867-2,138.292a145.445,145.445,0,0,1-36.675,13.934,169.116,169.116,0,0,1-38.916,4.644q-32.355,0-59.415-10.89a127.3,127.3,0,0,1-46.6-32.03q-19.541-21.141-30.589-51.889T57.973,212.679q0-35.553,10.09-65.981T97.05,94.169a132.594,132.594,0,0,1,46.124-34.593q27.22-12.492,61.5-12.492,28.828,0,49.808,6.086a225.944,225.944,0,0,1,36.032,13.453,203.136,203.136,0,0,1,24.023,13.453q8.966,6.087,12.811,6.085a7.362,7.362,0,0,0,4.165-1.28,9.355,9.355,0,0,0,3.2-4.325,31.3,31.3,0,0,0,1.922-7.687,79.847,79.847,0,0,0,.64-10.73q0-10.248-1.6-15.694a22.414,22.414,0,0,0-5.766-9.61q-4.165-4.158-15.215-10.731a149.914,149.914,0,0,0-27.225-12.171,284.208,284.208,0,0,0-37-9.768A227.1,227.1,0,0,0,205.953,0q-46.125,0-84.079,15.535T56.853,59.257Q29.782,87.445,14.893,127.48T0,216.844q0,47.406,13.773,85.841T53.65,368.667q26.1,27.549,63.9,42.439T203.39,426a268.345,268.345,0,0,0,63.419-7.687,279.341,279.341,0,0,0,30.429-9.289,245.624,245.624,0,0,0,24.023-10.089q9.285-4.641,12.171-10.731a33.357,33.357,0,0,0,2.883-14.413V215.883a30.441,30.441,0,0,0-1.6-10.25A18.774,18.774,0,0,0,332.111,200.7Z" style="fill: #102a46"/>
      <path d="M137.057,302.757c9.017-.332,17.682-.592,26.335-1.062a3.635,3.635,0,0,0,2.412-2.127,384.012,384.012,0,0,0,17.308-67.955c.236-1.415.5-2.826.838-4.763,64.64,5.521,128.5,1.672,191.577-14.826-1.842-4.7-3.661-9.541-5.7-14.287-.253-.591-1.671-.986-2.536-.962-8.767.236-17.529.706-26.3.865a459.039,459.039,0,0,1-72.636-4.837c-43.8-6.186-86.55-17.072-129.077-28.946-1.944-.543-3.892-1.072-6.2-1.706C137.3,208.978,139.406,255.631,137.057,302.757Z" style="fill: #daae37"/>
    </g>
  </g>
</svg>
